<svg id="Capa_1" enable-background="new 0 0 505 505" height="512" viewBox="0 0 505 505" width="512" xmlns="http://www.w3.org/2000/svg"><g><g><path d="m406.917 158.69v321.44c0 9.6-7.57 17.37-16.9 17.37h-275.03c-9.34 0-16.9-7.77-16.9-17.37v-321.44c0-9.59 7.56-17.37 16.9-17.37h275.03c9.329 0 16.9 7.78 16.9 17.37z" fill="#5de1c4"/><path d="m406.917 223.68v256.45c0 9.6-7.57 17.37-16.9 17.37h-275.03c-9.34 0-16.9-7.77-16.9-17.37v-256.45z" fill="#037e73"/><path d="m406.917 253.68v226.45c0 9.6-7.57 17.37-16.9 17.37h-275.03c-9.34 0-16.9-7.77-16.9-17.37v-226.45z" fill="#01998d"/><path d="m98.088 326.618v154.926h-41.176c-11.375 0-20.588-8.987-20.588-20.074v-79.985c0-6.352 3.078-12.322 8.297-16.11z" fill="#008b81"/><path d="m98.088 410.968v70.577h-41.176c-11.375 0-20.588-8.987-20.588-20.074v-46.756c8.925 9.089 26.713 14.844 61.764-3.747z" fill="#5de1c4"/><path d="m406.912 326.618v154.926h41.176c11.375 0 20.588-8.987 20.588-20.074v-79.985c0-6.352-3.078-12.322-8.297-16.11z" fill="#008b81"/><path d="m406.912 410.968v70.577h41.176c11.375 0 20.588-8.987 20.588-20.074v-46.756c-8.925 9.089-26.713 14.844-61.764-3.747z" fill="#5de1c4"/><path d="m451.687 83.36v64.46c0 19.15-14.97 34.68-33.45 34.68h-331.47c-18.48 0-33.46-15.53-33.46-34.68v-64.46c0-19.16 14.98-34.68 33.46-34.68h331.47c18.479 0 33.45 15.52 33.45 34.68z" fill="#a44f3e"/><path d="m451.687 107.36v40.46c0 19.15-14.97 34.68-33.45 34.68h-331.47c-18.48 0-33.46-15.53-33.46-34.68v-40.46c0-19.16 14.98-34.68 33.46-34.68h331.47c18.479 0 33.45 15.52 33.45 34.68z" fill="#bb5d4c"/><path d="m120.221 83.357v64.463c0 19.154-14.978 34.68-33.456 34.68s-33.456-15.526-33.456-34.68v-64.463c0-19.154 14.978-34.68 33.456-34.68s33.456 15.526 33.456 34.68z" fill="#d8aa5e"/><path d="m451.691 83.357v64.463c0 19.154-14.978 34.68-33.456 34.68s-33.456-15.526-33.456-34.68v-64.463c0-19.154 14.978-34.68 33.456-34.68 18.478-.001 33.456 15.526 33.456 34.68z" fill="#d8aa5e"/><path d="m355.441 141.324h-205.882v-16.295c0-8.057 6.531-14.588 14.588-14.588h176.707c8.057 0 14.588 6.531 14.588 14.588v16.295z" fill="#d7d0d6"/><path d="m170.735 285.441c-10.755.712-21.199-8.547-21.176-20v-124.117h41.176v124.118c0 11.045-8.954 19.999-20 19.999z" fill="#e8ad8c"/><path d="m195.998 254.559h-51.702c-2.779 0-5.031-2.253-5.031-5.031v-20.82c0-2.779 2.253-5.031 5.031-5.031h51.702c2.779 0 5.031 2.253 5.031 5.031v20.82c0 2.778-2.252 5.031-5.031 5.031z" fill="#d7d0d6"/><path d="m335.441 285.441c-10.755.712-21.199-8.547-21.177-20v-124.117h41.176v124.118c.001 11.045-8.953 19.999-19.999 19.999z" fill="#e8ad8c"/><path d="m360.704 254.559h-51.702c-2.779 0-5.031-2.253-5.031-5.031v-20.82c0-2.779 2.253-5.031 5.031-5.031h51.702c2.779 0 5.031 2.253 5.031 5.031v20.82c0 2.778-2.252 5.031-5.031 5.031z" fill="#d7d0d6"/><path d="m373.677 389.57v67.7c0 7.44-6.03 13.47-13.47 13.47h-214.06c-7.44 0-13.47-6.03-13.47-13.47v-67.7c0-34.77 28.18-62.95 62.95-62.95h115.1c34.77 0 62.95 28.18 62.95 62.95z" fill="#9cf8d2"/><path d="m373.677 414.45v42.82c0 7.44-6.03 13.47-13.47 13.47h-214.06c-7.44 0-13.47-6.03-13.47-13.47v-42.82c0-34.77 28.18-62.95 62.95-62.95h115.1c34.77 0 62.95 28.18 62.95 62.95z" fill="#c2fae3"/><path d="m253.618 416.573h72.059v26.515h-72.059z" fill="#fff6ce"/></g><g><path d="m381.006 384.92c-2.403-36.686-32.996-65.802-70.279-65.802h-115.101c-37.197 0-67.733 28.983-70.26 65.55-.31 1.375-.19 3.565-.19 4.9v67.701c0 11.562 9.406 20.967 20.967 20.967h214.065c11.562 0 20.967-9.406 20.967-20.967v-67.701c.002-1.285.114-3.333-.169-4.648zm-185.38-50.802h115.101c26.959 0 49.475 19.343 54.426 44.876l-190.157-.139c-.203-.017-.406-.031-.613-.031-.201 0-.399.015-.596.03l-32.558-.024c5.016-25.453 27.496-44.712 54.397-44.712zm164.583 129.117h-214.065c-3.291 0-5.967-2.677-5.967-5.967v-63.439l26.706.02v22.063c0 4.142 3.358 7.5 7.5 7.5s7.5-3.358 7.5-7.5v-22.052l184.294.135v63.274c0 3.29-2.677 5.966-5.968 5.966z"/><circle cx="64.331" cy="397.155" r="7.345"/><path d="m464.781 359.303-50.365-36.508v-33.295c0-4.142-3.358-7.5-7.5-7.5s-7.5 3.358-7.5 7.5l-.005 190.731c-.052 5.396-4.244 9.769-9.396 9.769h-275.03c-5.173 0-9.383-4.411-9.398-9.84l-.001-248.98h26.178v18.348c0 6.145 4.45 11.26 10.294 12.319-1.689 40.857 54.941 40.456 56.176 3.594v-3.594c5.844-1.059 10.294-6.174 10.294-12.319v-18.348h87.941v18.348c0 6.145 4.45 11.26 10.294 12.319v3.594c2.304 38.362 55.485 34.607 56.176 0v-3.594c5.844-1.059 10.294-6.174 10.294-12.319v-18.348h26.182v23.32c0 4.142 3.358 7.5 7.5 7.5s7.5-3.358 7.5-7.5v-64.5c23.535 1.965 44.917-17.51 44.774-42.181v-64.462c0-23.258-18.373-42.181-40.956-42.181h-96.47v-14.641c.002-14.631-11.902-26.535-26.533-26.535h-85.46c-14.631 0-26.535 11.904-26.535 26.535v14.641h-96.47c-19.055 0-35.112 13.471-39.664 31.652-.843 3.367-1.292 6.895-1.292 10.529v64.462c0 13.595 6.284 25.7 16.01 33.419 3.237 2.526 7.068 4.905 12.78 6.861 3.834 1.221 8.996 2.131 15.987 1.9v132.792l-50.371 36.513c-7.133 5.177-11.392 13.469-11.392 22.18v79.985c0 15.204 12.601 27.573 28.088 27.573h35.302c3.524 9.322 12.4 15.956 22.773 15.956h275.03c10.373 0 19.249-6.634 22.773-15.956h35.298c15.488 0 28.088-12.369 28.088-27.573v-79.985c.002-8.71-4.257-17.001-11.394-22.181zm-346.732-303.127h268.902c-6.027 7.347-9.671 16.832-9.671 27.181v64.463c0 10.349 3.644 19.833 9.671 27.18h-24.01v-33.676-16.294c0-12.179-9.909-22.087-22.088-22.087h-113.176c-4.142 0-7.5 3.358-7.5 7.5s3.358 7.5 7.5 7.5h113.177c3.908 0 7.088 3.179 7.088 7.087v8.794h-190.883v-8.794c0-3.908 3.18-7.087 7.088-7.087h28.53c4.142 0 7.5-3.358 7.5-7.5s-3.358-7.5-7.5-7.5h-28.53c-12.179 0-22.088 9.908-22.088 22.087v16.294 33.676h-24.01c6.027-7.347 9.671-16.831 9.671-27.18v-64.463c0-10.349-3.644-19.834-9.671-27.181zm188.716 92.648v26.176h-108.53v-26.176zm41.176 0v67.353h-26.176v-67.353zm-190.882 0h26.176v67.353h-26.176zm41.176 67.356v-26.18h108.53v26.18zm-15 49.261c-1.577 19.005-28.811 14.819-26.176-3.382h26.176zm10.295-18.382h-2.794-41.176-2.794v-15.879h46.765v15.879zm154.411 18.382c-.711 16.843-25.556 16.104-26.176 0v-3.382h26.176zm10.294-18.382h-2.794-41.176-2.794v-15.879h46.765v15.879zm41.182-30.879h-36.476v-26.18h36.476zm44.774-132.823v64.462c-2.352 37.802-51.081 34.042-51.912 0v-64.462c0-14.987 11.644-27.181 25.956-27.181s25.956 12.194 25.956 27.181zm-245.956-56.822c0-6.36 5.175-11.535 11.535-11.535h85.459c6.36 0 11.535 5.175 11.535 11.535v14.641h-108.53v-14.641zm-112.804 148.43c-13.695-.729-24.622-12.626-24.622-27.145v-64.463c0-14.987 11.644-27.181 25.956-27.181s25.955 12.194 25.955 27.181v64.463c.053 14.951-12.412 27.942-27.289 27.145zm56.628 15.035v26.18h-36.472v-26.18zm-93.036 181.447 41.564-30.129v65.064c-15.796 7.807-35.095 13.837-46.763 4.959v-29.856c-.001-3.922 1.944-7.676 5.199-10.038zm-5.2 90.024v-33.155c14.309 5.266 31.548 1.154 46.763-5.413v51.141h-33.674c-7.217 0-13.089-5.64-13.089-12.573zm412.151-90.026c3.258 2.364 5.203 6.118 5.203 10.041v29.856c-11.667 8.879-30.963 2.85-46.76-4.957v-65.063zm5.203 90.026c0 6.933-5.872 12.573-13.088 12.573h-33.671v-51.14c15.217 6.567 32.456 10.677 46.76 5.411v33.156z"/><circle cx="441.022" cy="397.155" r="7.345"/><path d="m325.677 409.073h-72.059c-4.142 0-7.5 3.358-7.5 7.5v26.515c0 4.142 3.358 7.5 7.5 7.5h72.059c4.142 0 7.5-3.358 7.5-7.5v-26.515c0-4.142-3.358-7.5-7.5-7.5zm-7.5 26.515h-57.059v-11.515h57.059z"/></g></g></svg>